<svg width="56" height="57" viewBox="0 0 56 57" fill="none" xmlns="http://www.w3.org/2000/svg">
<path d="M49.0273 38.9886V17.624C49.0256 17.3154 48.9426 17.0127 48.7867 16.7464C48.6307 16.4801 48.4073 16.2596 48.1389 16.1072L29.0711 5.38158C28.8142 5.23324 28.5227 5.15515 28.226 5.15515C27.9294 5.15515 27.6379 5.23324 27.381 5.38158L8.31319 16.1072C8.04483 16.2596 7.82141 16.4801 7.66543 16.7464C7.50946 17.0127 7.42646 17.3154 7.4248 17.624V38.9886C7.42646 39.2972 7.50946 39.5999 7.66543 39.8662C7.82141 40.1325 8.04483 40.3529 8.31319 40.5053L27.381 51.231C27.6379 51.3793 27.9294 51.4574 28.226 51.4574C28.5227 51.4574 28.8142 51.3793 29.0711 51.231L48.1389 40.5053C48.4073 40.3529 48.6307 40.1325 48.7867 39.8662C48.9426 39.5999 49.0256 39.2972 49.0273 38.9886V38.9886Z" stroke="#4EAF4E" stroke-width="2" stroke-linecap="round" stroke-linejoin="round"/>
<path d="M38.8441 33.6149V22.3476L17.8262 10.7552" stroke="#4EAF4E" stroke-width="2" stroke-linecap="round" stroke-linejoin="round"/>
<path d="M48.7889 16.7356L28.421 28.3063L7.66309 16.7356" stroke="#4EAF4E" stroke-width="2" stroke-linecap="round" stroke-linejoin="round"/>
<path d="M28.4216 28.3063L28.2266 51.4477" stroke="#4EAF4E" stroke-width="2" stroke-linecap="round" stroke-linejoin="round"/>
</svg>
