<svg width="59" height="59" viewBox="0 0 59 59" fill="none" xmlns="http://www.w3.org/2000/svg">
<path d="M20.0508 18.9859V26.0236C20.0508 31.0944 24.2539 35.2965 29.5012 35.3349C30.7564 35.3433 32.001 35.1116 33.1633 34.6532C34.3255 34.1949 35.3824 33.5188 36.2731 32.664C37.1638 31.8092 37.8707 30.7926 38.3531 29.6727C38.8355 28.5527 39.0838 27.3516 39.0837 26.1386V18.9859C39.0837 18.7149 38.9723 18.455 38.774 18.2634C38.5757 18.0718 38.3068 17.9641 38.0264 17.9641H21.1082C20.8277 17.9641 20.5588 18.0718 20.3605 18.2634C20.1622 18.455 20.0508 18.7149 20.0508 18.9859Z" stroke="#4EAF4E" stroke-width="2" stroke-linecap="round" stroke-linejoin="round"/>
<path d="M13.3398 13.4289V25.8474C13.3398 34.7951 20.507 42.2102 29.4546 42.2778C31.5951 42.2926 33.7174 41.8839 35.6992 41.075C37.6811 40.2662 39.4833 39.0732 41.0021 37.5649C42.521 36.0565 43.7263 34.2626 44.5489 32.2864C45.3714 30.3102 45.7949 28.1908 45.7948 26.0503V13.4289C45.7948 12.9507 45.6049 12.4921 45.2667 12.154C44.9286 11.8158 44.47 11.6259 43.9918 11.6259H15.1429C14.6647 11.6259 14.2061 11.8158 13.8679 12.154C13.5298 12.4921 13.3398 12.9507 13.3398 13.4289Z" stroke="#4EAF4E" stroke-width="2" stroke-linecap="round" stroke-linejoin="round"/>
<path d="M22.3555 51.2932H36.7799" stroke="#4EAF4E" stroke-width="2" stroke-linecap="round" stroke-linejoin="round"/>
<path d="M29.5674 42.278V51.2932" stroke="#4EAF4E" stroke-width="2" stroke-linecap="round" stroke-linejoin="round"/>
<path d="M45.3896 29.6564H47.5984C49.5112 29.6564 51.3456 28.8966 52.6982 27.544C54.0508 26.1915 54.8106 24.357 54.8106 22.4442V18.8381C54.8106 18.3599 54.6206 17.9013 54.2825 17.5631C53.9444 17.225 53.4858 17.035 53.0076 17.035H45.7953" stroke="#4EAF4E" stroke-width="2" stroke-linecap="round" stroke-linejoin="round"/>
<path d="M13.7913 29.6564H11.515C9.60215 29.6564 7.7677 28.8966 6.41514 27.544C5.06259 26.1915 4.30273 24.357 4.30273 22.4442V18.8381C4.30273 18.3599 4.4927 17.9013 4.83084 17.5631C5.16898 17.225 5.62759 17.035 6.10579 17.035H13.318" stroke="#4EAF4E" stroke-width="2" stroke-linecap="round" stroke-linejoin="round"/>
</svg>
