<svg width="62" height="61" viewBox="0 0 62 61" fill="none" xmlns="http://www.w3.org/2000/svg">
<path d="M19.6038 47.3406C23.7622 47.3406 27.1333 43.9695 27.1333 39.811C27.1333 35.6526 23.7622 32.2815 19.6038 32.2815C15.4453 32.2815 12.0742 35.6526 12.0742 39.811C12.0742 43.9695 15.4453 47.3406 19.6038 47.3406Z" stroke="#4EAF4E" stroke-width="2" stroke-linecap="round" stroke-linejoin="round"/>
<path d="M8.30957 52.9877C9.62461 51.2343 11.3298 49.8112 13.2902 48.831C15.2505 47.8509 17.4121 47.3406 19.6039 47.3406C21.7956 47.3406 23.9572 47.8509 25.9176 48.831C27.8779 49.8112 29.5832 51.2343 30.8982 52.9877" stroke="#4EAF4E" stroke-width="2" stroke-linecap="round" stroke-linejoin="round"/>
<path d="M19.6038 22.8696C23.7622 22.8696 27.1333 19.4985 27.1333 15.3401C27.1333 11.1816 23.7622 7.81055 19.6038 7.81055C15.4453 7.81055 12.0742 11.1816 12.0742 15.3401C12.0742 19.4985 15.4453 22.8696 19.6038 22.8696Z" stroke="#4EAF4E" stroke-width="2" stroke-linecap="round" stroke-linejoin="round"/>
<path d="M8.30957 28.5168C9.62461 26.7634 11.3298 25.3403 13.2902 24.3601C15.2505 23.3799 17.4121 22.8696 19.6039 22.8696C21.7956 22.8696 23.9572 23.3799 25.9176 24.3601C27.8779 25.3403 29.5832 26.7634 30.8982 28.5168" stroke="#4EAF4E" stroke-width="2" stroke-linecap="round" stroke-linejoin="round"/>
<path d="M42.1926 47.3406C46.3511 47.3406 49.7222 43.9695 49.7222 39.811C49.7222 35.6526 46.3511 32.2815 42.1926 32.2815C38.0342 32.2815 34.6631 35.6526 34.6631 39.811C34.6631 43.9695 38.0342 47.3406 42.1926 47.3406Z" stroke="#4EAF4E" stroke-width="2" stroke-linecap="round" stroke-linejoin="round"/>
<path d="M30.8984 52.9877C32.2135 51.2343 33.9187 49.8112 35.879 48.831C37.8394 47.8509 40.001 47.3406 42.1927 47.3406C44.3845 47.3406 46.5461 47.8509 48.5065 48.831C50.4668 49.8112 52.172 51.2343 53.4871 52.9877" stroke="#4EAF4E" stroke-width="2" stroke-linecap="round" stroke-linejoin="round"/>
<path d="M42.1926 22.8696C46.3511 22.8696 49.7222 19.4985 49.7222 15.3401C49.7222 11.1816 46.3511 7.81055 42.1926 7.81055C38.0342 7.81055 34.6631 11.1816 34.6631 15.3401C34.6631 19.4985 38.0342 22.8696 42.1926 22.8696Z" stroke="#4EAF4E" stroke-width="2" stroke-linecap="round" stroke-linejoin="round"/>
<path d="M30.8984 28.5168C32.2135 26.7634 33.9187 25.3403 35.879 24.3601C37.8394 23.3799 40.001 22.8696 42.1927 22.8696C44.3845 22.8696 46.5461 23.3799 48.5065 24.3601C50.4668 25.3403 52.172 26.7634 53.4871 28.5168" stroke="#4EAF4E" stroke-width="2" stroke-linecap="round" stroke-linejoin="round"/>
</svg>
