<svg width="20" height="19" viewBox="0 0 20 19" fill="none" xmlns="http://www.w3.org/2000/svg">
<path d="M13.5322 1.53379C14.5868 1.53682 15.5974 1.94133 16.3432 2.65898C17.089 3.37663 17.5094 4.3491 17.5125 5.364V13.0236C17.5094 14.0385 17.089 15.011 16.3432 15.7286C15.5974 16.4463 14.5868 16.8508 13.5322 16.8538H5.57226C4.51757 16.8508 3.50698 16.4463 2.7612 15.7286C2.01541 15.011 1.59504 14.0385 1.59189 13.0236V5.364C1.59504 4.3491 2.01541 3.37663 2.7612 2.65898C3.50698 1.94133 4.51757 1.53682 5.57226 1.53379H13.5322ZM13.5322 0.00195312H5.57226C2.50745 0.00195313 0 2.41481 0 5.364V13.0236C0 15.9728 2.50745 18.3857 5.57226 18.3857H13.5322C16.597 18.3857 19.1044 15.9728 19.1044 13.0236V5.364C19.1044 2.41481 16.597 0.00195312 13.5322 0.00195312Z" fill="white"/>
<path d="M14.7274 5.36437C14.4913 5.36437 14.2604 5.29698 14.0641 5.17073C13.8677 5.04448 13.7147 4.86503 13.6243 4.65508C13.5339 4.44514 13.5103 4.21411 13.5563 3.99123C13.6024 3.76835 13.7161 3.56362 13.8831 3.40294C14.0501 3.24225 14.2629 3.13282 14.4945 3.08848C14.7261 3.04415 14.9662 3.0669 15.1844 3.15387C15.4025 3.24083 15.589 3.3881 15.7202 3.57705C15.8514 3.766 15.9214 3.98814 15.9214 4.21539C15.9218 4.36637 15.8911 4.51592 15.8312 4.65547C15.7714 4.79502 15.6834 4.92181 15.5725 5.02856C15.4615 5.13532 15.3298 5.21994 15.1848 5.27757C15.0397 5.3352 14.8843 5.36469 14.7274 5.36437ZM9.55345 6.13008C10.1832 6.13008 10.7989 6.30979 11.3225 6.64648C11.8461 6.98316 12.2543 7.46171 12.4953 8.0216C12.7363 8.58148 12.7993 9.19757 12.6765 9.79194C12.5536 10.3863 12.2503 10.9323 11.805 11.3608C11.3597 11.7893 10.7923 12.0812 10.1747 12.1994C9.55698 12.3176 8.91674 12.2569 8.3349 12.025C7.75307 11.7931 7.25576 11.4004 6.90587 10.8965C6.55599 10.3926 6.36924 9.80019 6.36924 9.19417C6.37014 8.38179 6.70591 7.60293 7.30287 7.02849C7.89983 6.45405 8.70922 6.13095 9.55345 6.13008ZM9.55345 4.59825C8.60882 4.59825 7.68541 4.86779 6.89999 5.3728C6.11456 5.8778 5.5024 6.59559 5.14091 7.43539C4.77941 8.27518 4.68483 9.19927 4.86912 10.0908C5.0534 10.9823 5.50828 11.8012 6.17623 12.444C6.84418 13.0867 7.6952 13.5245 8.62168 13.7018C9.54815 13.8791 10.5085 13.7881 11.3812 13.4403C12.2539 13.0924 12.9998 12.5033 13.5246 11.7475C14.0494 10.9917 14.3296 10.1032 14.3296 9.19417C14.3296 7.97526 13.8264 6.80626 12.9307 5.94436C12.035 5.08246 10.8201 4.59825 9.55345 4.59825Z" fill="white"/>
</svg>
