<svg width="50" height="50" viewBox="0 0 50 50" fill="none" xmlns="http://www.w3.org/2000/svg">
<circle cx="25" cy="25" r="25" fill="#181818"/>
<path d="M24.9988 26.2C26.7661 26.2 28.1988 24.7674 28.1988 23C28.1988 21.2327 26.7661 19.8 24.9988 19.8C23.2315 19.8 21.7988 21.2327 21.7988 23C21.7988 24.7674 23.2315 26.2 24.9988 26.2Z" stroke="white" stroke-linecap="round" stroke-linejoin="round"/>
<path d="M33 23C33 30.2 25 35.8 25 35.8C25 35.8 17 30.2 17 23C17 20.8783 17.8429 18.8434 19.3431 17.3431C20.8434 15.8429 22.8783 15 25 15C27.1217 15 29.1566 15.8429 30.6569 17.3431C32.1571 18.8434 33 20.8783 33 23V23Z" stroke="white" stroke-linecap="round" stroke-linejoin="round"/>
</svg>
