<svg width="183" height="34" viewBox="0 0 183 34" fill="none" xmlns="http://www.w3.org/2000/svg">
<path d="M26.9634 22.765C28.4964 22.765 29.7392 21.5223 29.7392 19.9893V4.09023C29.7392 2.55721 28.4964 1.31446 26.9634 1.31446L2.77577 1.31445C1.24276 1.31445 3.28691e-06 2.5572 1.38994e-06 4.09022L0 19.9893C-1.34021e-07 21.5223 1.24275 22.765 2.77577 22.765H14.1017C14.1053 22.7688 14.109 22.7725 14.1127 22.7762L21.2846 29.9481C21.8675 30.531 22.8641 30.1182 22.8641 29.2939V22.765H26.9634Z" fill="#FFCC4A"/>
<rect x="7.56934" y="14.9478" width="13.8699" height="1.55035" rx="0.775175" fill="#1B1B1B"/>
<rect x="7.56934" y="10.9536" width="13.8699" height="1.55035" rx="0.775175" fill="#1B1B1B"/>
<rect x="7.56934" y="7.37305" width="13.8699" height="1.55035" rx="0.775175" fill="#1B1B1B"/>
<path d="M54.4943 21.0326H45.6293V17.9576H54.4943V21.0326ZM49.6043 8.67258H50.5343L44.3243 26.2676H40.8743L48.3593 5.26758H51.7643L59.2643 26.2676H55.7993L49.6043 8.67258ZM65.3721 26.5676C64.2721 26.5676 63.3121 26.4526 62.4921 26.2226C61.6721 25.9826 60.9471 25.7076 60.3171 25.3976L60.6471 22.4126C61.2471 22.8026 61.9321 23.1526 62.7021 23.4626C63.4721 23.7626 64.3221 23.9126 65.2521 23.9126C66.0721 23.9126 66.6971 23.7826 67.1271 23.5226C67.5571 23.2526 67.7721 22.8426 67.7721 22.2926C67.7721 21.8626 67.6471 21.5126 67.3971 21.2426C67.1471 20.9626 66.8071 20.7276 66.3771 20.5376C65.9571 20.3376 65.4821 20.1476 64.9521 19.9676C64.1221 19.6876 63.3721 19.3726 62.7021 19.0226C62.0321 18.6626 61.4971 18.2026 61.0971 17.6426C60.7071 17.0826 60.5121 16.3576 60.5121 15.4676C60.5121 14.6476 60.7221 13.9076 61.1421 13.2476C61.5621 12.5776 62.1821 12.0476 63.0021 11.6576C63.8221 11.2676 64.8421 11.0726 66.0621 11.0726C67.0221 11.0726 67.8521 11.1776 68.5521 11.3876C69.2621 11.5976 69.9021 11.8576 70.4721 12.1676L70.1421 15.0926C69.5521 14.6626 68.9371 14.3076 68.2971 14.0276C67.6571 13.7376 66.9321 13.5926 66.1221 13.5926C65.4021 13.5926 64.8321 13.7326 64.4121 14.0126C64.0021 14.2926 63.7971 14.7076 63.7971 15.2576C63.7971 15.8776 64.0571 16.3326 64.5771 16.6226C65.0971 16.9126 65.9071 17.2576 67.0071 17.6576C67.5871 17.8676 68.1271 18.0976 68.6271 18.3476C69.1271 18.5976 69.5671 18.8926 69.9471 19.2326C70.3271 19.5726 70.6221 19.9776 70.8321 20.4476C71.0421 20.9176 71.1471 21.4776 71.1471 22.1276C71.1471 22.9676 70.9471 23.7226 70.5471 24.3926C70.1471 25.0626 69.5221 25.5926 68.6721 25.9826C67.8221 26.3726 66.7221 26.5676 65.3721 26.5676ZM73.7097 26.2676V3.76758H77.0547V17.7026L81.9897 11.3726H85.8597L80.2497 18.4526L85.9947 26.2676H82.1097L77.0547 19.3076V26.2676H73.7097ZM88.3136 26.2676V5.26758H101.529V8.56758H91.8536V13.6526H99.4286V16.9526H91.8536V22.9676H101.814V26.2676H88.3136ZM103.193 26.2676L108.218 18.8276L103.238 11.3726H107.153L110.243 16.2626L113.078 11.3726H117.053L112.118 18.7526L117.113 26.2676H113.183L110.093 21.3926L107.123 26.2676H103.193ZM119.208 33.5276V11.3726H121.878L122.523 14.1776L121.533 13.7426C122.203 12.9426 122.958 12.3076 123.798 11.8376C124.648 11.3576 125.683 11.1176 126.903 11.1176C128.333 11.1176 129.538 11.4676 130.518 12.1676C131.508 12.8676 132.258 13.8026 132.768 14.9726C133.278 16.1426 133.533 17.4326 133.533 18.8426C133.533 20.2526 133.283 21.5426 132.783 22.7126C132.283 23.8826 131.543 24.8176 130.563 25.5176C129.583 26.2176 128.363 26.5676 126.903 26.5676C125.733 26.5676 124.743 26.3776 123.933 25.9976C123.133 25.6176 122.418 25.0276 121.788 24.2276L122.553 23.5526V33.5276H119.208ZM126.363 23.7476C127.543 23.7476 128.463 23.3026 129.123 22.4126C129.783 21.5126 130.113 20.3226 130.113 18.8426C130.113 17.3526 129.783 16.1626 129.123 15.2726C128.463 14.3826 127.543 13.9376 126.363 13.9376C125.523 13.9376 124.803 14.1376 124.203 14.5376C123.613 14.9276 123.163 15.4876 122.853 16.2176C122.543 16.9476 122.388 17.8226 122.388 18.8426C122.388 19.8826 122.543 20.7676 122.853 21.4976C123.163 22.2276 123.613 22.7876 124.203 23.1776C124.803 23.5576 125.523 23.7476 126.363 23.7476ZM143.371 26.5676C141.591 26.5676 140.101 26.2076 138.901 25.4876C137.711 24.7676 136.811 23.8176 136.201 22.6376C135.601 21.4476 135.301 20.1426 135.301 18.7226C135.301 17.3526 135.581 16.0926 136.141 14.9426C136.711 13.7826 137.536 12.8576 138.616 12.1676C139.706 11.4676 141.026 11.1176 142.576 11.1176C143.936 11.1176 145.096 11.3926 146.056 11.9426C147.016 12.4926 147.746 13.2526 148.246 14.2226C148.756 15.1826 149.011 16.2826 149.011 17.5226C149.011 17.8026 148.991 18.0976 148.951 18.4076C148.921 18.7076 148.876 19.0176 148.816 19.3376H138.766C138.906 20.4276 139.211 21.2926 139.681 21.9326C140.151 22.5726 140.736 23.0376 141.436 23.3276C142.136 23.6076 142.891 23.7476 143.701 23.7476C144.501 23.7476 145.271 23.6526 146.011 23.4626C146.761 23.2626 147.456 22.9926 148.096 22.6526L148.351 25.4276C147.781 25.7076 147.076 25.9676 146.236 26.2076C145.396 26.4476 144.441 26.5676 143.371 26.5676ZM138.916 17.0576H145.591C145.591 16.5176 145.486 16.0126 145.276 15.5426C145.076 15.0626 144.751 14.6776 144.301 14.3876C143.861 14.0876 143.281 13.9376 142.561 13.9376C141.511 13.9376 140.691 14.2226 140.101 14.7926C139.521 15.3626 139.126 16.1176 138.916 17.0576ZM151.611 26.2676V11.3726H154.641L154.806 13.2776C155.326 12.6676 155.931 12.1476 156.621 11.7176C157.311 11.2876 158.056 11.0726 158.856 11.0726C159.096 11.0726 159.321 11.0976 159.531 11.1476L159.261 14.5526C159.071 14.5026 158.881 14.4726 158.691 14.4626C158.501 14.4426 158.306 14.4326 158.106 14.4326C157.426 14.4326 156.801 14.5876 156.231 14.8976C155.661 15.2076 155.261 15.5676 155.031 15.9776V26.2676H151.611ZM166.332 26.5676C165.392 26.5676 164.632 26.3826 164.052 26.0126C163.472 25.6426 163.047 25.1726 162.777 24.6026C162.507 24.0226 162.372 23.4176 162.372 22.7876V14.0876H160.092L160.392 11.3726H162.372V7.95258L165.717 7.60758V11.3726H169.227V14.0876H165.717V21.2126C165.717 22.0426 165.767 22.6426 165.867 23.0126C165.967 23.3726 166.197 23.6026 166.557 23.7026C166.917 23.7926 167.497 23.8376 168.297 23.8376H169.197L168.912 26.5676H166.332ZM175.851 26.5676C174.751 26.5676 173.791 26.4526 172.971 26.2226C172.151 25.9826 171.426 25.7076 170.796 25.3976L171.126 22.4126C171.726 22.8026 172.411 23.1526 173.181 23.4626C173.951 23.7626 174.801 23.9126 175.731 23.9126C176.551 23.9126 177.176 23.7826 177.606 23.5226C178.036 23.2526 178.251 22.8426 178.251 22.2926C178.251 21.8626 178.126 21.5126 177.876 21.2426C177.626 20.9626 177.286 20.7276 176.856 20.5376C176.436 20.3376 175.961 20.1476 175.431 19.9676C174.601 19.6876 173.851 19.3726 173.181 19.0226C172.511 18.6626 171.976 18.2026 171.576 17.6426C171.186 17.0826 170.991 16.3576 170.991 15.4676C170.991 14.6476 171.201 13.9076 171.621 13.2476C172.041 12.5776 172.661 12.0476 173.481 11.6576C174.301 11.2676 175.321 11.0726 176.541 11.0726C177.501 11.0726 178.331 11.1776 179.031 11.3876C179.741 11.5976 180.381 11.8576 180.951 12.1676L180.621 15.0926C180.031 14.6626 179.416 14.3076 178.776 14.0276C178.136 13.7376 177.411 13.5926 176.601 13.5926C175.881 13.5926 175.311 13.7326 174.891 14.0126C174.481 14.2926 174.276 14.7076 174.276 15.2576C174.276 15.8776 174.536 16.3326 175.056 16.6226C175.576 16.9126 176.386 17.2576 177.486 17.6576C178.066 17.8676 178.606 18.0976 179.106 18.3476C179.606 18.5976 180.046 18.8926 180.426 19.2326C180.806 19.5726 181.101 19.9776 181.311 20.4476C181.521 20.9176 181.626 21.4776 181.626 22.1276C181.626 22.9676 181.426 23.7226 181.026 24.3926C180.626 25.0626 180.001 25.5926 179.151 25.9826C178.301 26.3726 177.201 26.5676 175.851 26.5676Z" fill="#262626"/>
</svg>
