<svg width="182" height="34" viewBox="0 0 182 34" fill="none" xmlns="http://www.w3.org/2000/svg">
<path d="M26.5559 22.4521C28.0658 22.4521 29.2898 21.2281 29.2898 19.7183V4.05951C29.2898 2.54966 28.0658 1.32569 26.5559 1.32569L2.73382 1.32568C1.22398 1.32568 3.23724e-06 2.54965 1.36893e-06 4.0595L0 19.7183C-1.31995e-07 21.2281 1.22397 22.4521 2.73382 22.4521H13.8886C13.8922 22.4558 13.8958 22.4594 13.8994 22.463L20.963 29.5266C21.537 30.1007 22.5186 29.6941 22.5186 28.8822V22.4521H26.5559Z" fill="#FFCC4A"/>
<rect x="7.45508" y="14.7554" width="13.6603" height="1.52692" rx="0.76346" fill="#1B1B1B"/>
<rect x="7.45508" y="10.8179" width="13.6603" height="1.52692" rx="0.76346" fill="#1B1B1B"/>
<rect x="7.45508" y="7.28662" width="13.6603" height="1.52692" rx="0.76346" fill="#1B1B1B"/>
<path d="M53.045 20.8255H44.18V17.7505H53.045V20.8255ZM48.155 8.46555H49.085L42.875 26.0605H39.425L46.91 5.06055H50.315L57.815 26.0605H54.35L48.155 8.46555ZM63.9229 26.3605C62.8229 26.3605 61.8629 26.2455 61.0429 26.0155C60.2229 25.7755 59.4979 25.5005 58.8679 25.1905L59.1979 22.2055C59.7979 22.5955 60.4829 22.9455 61.2529 23.2555C62.0229 23.5555 62.8729 23.7055 63.8029 23.7055C64.6229 23.7055 65.2479 23.5755 65.6779 23.3155C66.1079 23.0455 66.3229 22.6355 66.3229 22.0855C66.3229 21.6555 66.1979 21.3055 65.9479 21.0355C65.6979 20.7555 65.3579 20.5205 64.9279 20.3305C64.5079 20.1305 64.0329 19.9405 63.5029 19.7605C62.6729 19.4805 61.9229 19.1655 61.2529 18.8155C60.5829 18.4555 60.0479 17.9955 59.6479 17.4355C59.2579 16.8755 59.0629 16.1505 59.0629 15.2605C59.0629 14.4405 59.2729 13.7005 59.6929 13.0405C60.1129 12.3705 60.7329 11.8405 61.5529 11.4505C62.3729 11.0605 63.3929 10.8655 64.6129 10.8655C65.5729 10.8655 66.4029 10.9705 67.1029 11.1805C67.8129 11.3905 68.4529 11.6505 69.0229 11.9605L68.6929 14.8855C68.1029 14.4555 67.4879 14.1005 66.8479 13.8205C66.2079 13.5305 65.4829 13.3855 64.6729 13.3855C63.9529 13.3855 63.3829 13.5255 62.9629 13.8055C62.5529 14.0855 62.3479 14.5005 62.3479 15.0505C62.3479 15.6705 62.6079 16.1255 63.1279 16.4155C63.6479 16.7055 64.4579 17.0505 65.5579 17.4505C66.1379 17.6605 66.6779 17.8905 67.1779 18.1405C67.6779 18.3905 68.1179 18.6855 68.4979 19.0255C68.8779 19.3655 69.1729 19.7705 69.3829 20.2405C69.5929 20.7105 69.6979 21.2705 69.6979 21.9205C69.6979 22.7605 69.4979 23.5155 69.0979 24.1855C68.6979 24.8555 68.0729 25.3855 67.2229 25.7755C66.3729 26.1655 65.2729 26.3605 63.9229 26.3605ZM72.2605 26.0605V3.56055H75.6055V17.4955L80.5405 11.1655H84.4105L78.8005 18.2455L84.5455 26.0605H80.6605L75.6055 19.1005V26.0605H72.2605ZM86.8644 26.0605V5.06055H100.079V8.36055H90.4044V13.4455H97.9794V16.7455H90.4044V22.7605H100.364V26.0605H86.8644ZM101.744 26.0605L106.769 18.6205L101.789 11.1655H105.704L108.794 16.0555L111.629 11.1655H115.604L110.669 18.5455L115.664 26.0605H111.734L108.644 21.1855L105.674 26.0605H101.744ZM117.759 33.3205V11.1655H120.429L121.074 13.9705L120.084 13.5355C120.754 12.7355 121.509 12.1005 122.349 11.6305C123.199 11.1505 124.234 10.9105 125.454 10.9105C126.884 10.9105 128.089 11.2605 129.069 11.9605C130.059 12.6605 130.809 13.5955 131.319 14.7655C131.829 15.9355 132.084 17.2255 132.084 18.6355C132.084 20.0455 131.834 21.3355 131.334 22.5055C130.834 23.6755 130.094 24.6105 129.114 25.3105C128.134 26.0105 126.914 26.3605 125.454 26.3605C124.284 26.3605 123.294 26.1705 122.484 25.7905C121.684 25.4105 120.969 24.8205 120.339 24.0205L121.104 23.3455V33.3205H117.759ZM124.914 23.5405C126.094 23.5405 127.014 23.0955 127.674 22.2055C128.334 21.3055 128.664 20.1155 128.664 18.6355C128.664 17.1455 128.334 15.9555 127.674 15.0655C127.014 14.1755 126.094 13.7305 124.914 13.7305C124.074 13.7305 123.354 13.9305 122.754 14.3305C122.164 14.7205 121.714 15.2805 121.404 16.0105C121.094 16.7405 120.939 17.6155 120.939 18.6355C120.939 19.6755 121.094 20.5605 121.404 21.2905C121.714 22.0205 122.164 22.5805 122.754 22.9705C123.354 23.3505 124.074 23.5405 124.914 23.5405ZM141.921 26.3605C140.141 26.3605 138.651 26.0005 137.451 25.2805C136.261 24.5605 135.361 23.6105 134.751 22.4305C134.151 21.2405 133.851 19.9355 133.851 18.5155C133.851 17.1455 134.131 15.8855 134.691 14.7355C135.261 13.5755 136.086 12.6505 137.166 11.9605C138.256 11.2605 139.576 10.9105 141.126 10.9105C142.486 10.9105 143.646 11.1855 144.606 11.7355C145.566 12.2855 146.296 13.0455 146.796 14.0155C147.306 14.9755 147.561 16.0755 147.561 17.3155C147.561 17.5955 147.541 17.8905 147.501 18.2005C147.471 18.5005 147.426 18.8105 147.366 19.1305H137.316C137.456 20.2205 137.761 21.0855 138.231 21.7255C138.701 22.3655 139.286 22.8305 139.986 23.1205C140.686 23.4005 141.441 23.5405 142.251 23.5405C143.051 23.5405 143.821 23.4455 144.561 23.2555C145.311 23.0555 146.006 22.7855 146.646 22.4455L146.901 25.2205C146.331 25.5005 145.626 25.7605 144.786 26.0005C143.946 26.2405 142.991 26.3605 141.921 26.3605ZM137.466 16.8505H144.141C144.141 16.3105 144.036 15.8055 143.826 15.3355C143.626 14.8555 143.301 14.4705 142.851 14.1805C142.411 13.8805 141.831 13.7305 141.111 13.7305C140.061 13.7305 139.241 14.0155 138.651 14.5855C138.071 15.1555 137.676 15.9105 137.466 16.8505ZM150.162 26.0605V11.1655H153.192L153.357 13.0705C153.877 12.4605 154.482 11.9405 155.172 11.5105C155.862 11.0805 156.607 10.8655 157.407 10.8655C157.647 10.8655 157.872 10.8905 158.082 10.9405L157.812 14.3455C157.622 14.2955 157.432 14.2655 157.242 14.2555C157.052 14.2355 156.857 14.2255 156.657 14.2255C155.977 14.2255 155.352 14.3805 154.782 14.6905C154.212 15.0005 153.812 15.3605 153.582 15.7705V26.0605H150.162ZM164.882 26.3605C163.942 26.3605 163.182 26.1755 162.602 25.8055C162.022 25.4355 161.597 24.9655 161.327 24.3955C161.057 23.8155 160.922 23.2105 160.922 22.5805V13.8805H158.642L158.942 11.1655H160.922V7.74555L164.267 7.40055V11.1655H167.777V13.8805H164.267V21.0055C164.267 21.8355 164.317 22.4355 164.417 22.8055C164.517 23.1655 164.747 23.3955 165.107 23.4955C165.467 23.5855 166.047 23.6305 166.847 23.6305H167.747L167.462 26.3605H164.882ZM174.401 26.3605C173.301 26.3605 172.341 26.2455 171.521 26.0155C170.701 25.7755 169.976 25.5005 169.346 25.1905L169.676 22.2055C170.276 22.5955 170.961 22.9455 171.731 23.2555C172.501 23.5555 173.351 23.7055 174.281 23.7055C175.101 23.7055 175.726 23.5755 176.156 23.3155C176.586 23.0455 176.801 22.6355 176.801 22.0855C176.801 21.6555 176.676 21.3055 176.426 21.0355C176.176 20.7555 175.836 20.5205 175.406 20.3305C174.986 20.1305 174.511 19.9405 173.981 19.7605C173.151 19.4805 172.401 19.1655 171.731 18.8155C171.061 18.4555 170.526 17.9955 170.126 17.4355C169.736 16.8755 169.541 16.1505 169.541 15.2605C169.541 14.4405 169.751 13.7005 170.171 13.0405C170.591 12.3705 171.211 11.8405 172.031 11.4505C172.851 11.0605 173.871 10.8655 175.091 10.8655C176.051 10.8655 176.881 10.9705 177.581 11.1805C178.291 11.3905 178.931 11.6505 179.501 11.9605L179.171 14.8855C178.581 14.4555 177.966 14.1005 177.326 13.8205C176.686 13.5305 175.961 13.3855 175.151 13.3855C174.431 13.3855 173.861 13.5255 173.441 13.8055C173.031 14.0855 172.826 14.5005 172.826 15.0505C172.826 15.6705 173.086 16.1255 173.606 16.4155C174.126 16.7055 174.936 17.0505 176.036 17.4505C176.616 17.6605 177.156 17.8905 177.656 18.1405C178.156 18.3905 178.596 18.6855 178.976 19.0255C179.356 19.3655 179.651 19.7705 179.861 20.2405C180.071 20.7105 180.176 21.2705 180.176 21.9205C180.176 22.7605 179.976 23.5155 179.576 24.1855C179.176 24.8555 178.551 25.3855 177.701 25.7755C176.851 26.1655 175.751 26.3605 174.401 26.3605Z" fill="white"/>
</svg>
