<svg width="56" height="56" viewBox="0 0 56 56" fill="none" xmlns="http://www.w3.org/2000/svg">
<path d="M27.9809 39.0391C32.7187 39.0391 36.5595 35.1983 36.5595 30.4605C36.5595 25.7227 32.7187 21.882 27.9809 21.882C23.2431 21.882 19.4023 25.7227 19.4023 30.4605C19.4023 35.1983 23.2431 39.0391 27.9809 39.0391Z" stroke="#4EAF4E" stroke-width="2" stroke-linecap="round" stroke-linejoin="round"/>
<path d="M42.5645 25.3133C44.5627 25.3099 46.5341 25.7736 48.3214 26.6672C50.1087 27.5608 51.6625 28.8598 52.8587 30.4604" stroke="#4EAF4E" stroke-width="2" stroke-linecap="round" stroke-linejoin="round"/>
<path d="M3.10254 30.4604C4.29882 28.8598 5.85257 27.5608 7.63987 26.6672C9.42717 25.7736 11.3986 25.3099 13.3968 25.3133" stroke="#4EAF4E" stroke-width="2" stroke-linecap="round" stroke-linejoin="round"/>
<path d="M15.6279 46.7598C16.7578 44.4459 18.5148 42.4959 20.6988 41.1318C22.8828 39.7678 25.4061 39.0446 27.9811 39.0446C30.5561 39.0446 33.0793 39.7678 35.2633 41.1318C37.4473 42.4959 39.2044 44.4459 40.3342 46.7598" stroke="#4EAF4E" stroke-width="2" stroke-linecap="round" stroke-linejoin="round"/>
<path d="M13.3972 25.3132C12.0946 25.3146 10.8186 24.9452 9.71813 24.2482C8.61771 23.5512 7.73836 22.5555 7.18282 21.3774C6.62728 20.1992 6.4185 18.8873 6.58088 17.5949C6.74326 16.3025 7.27008 15.083 8.0998 14.0788C8.92951 13.0747 10.0279 12.3275 11.2665 11.9244C12.5051 11.5213 13.8329 11.479 15.0946 11.8025C16.3564 12.126 17.5 12.8019 18.3919 13.7513C19.2838 14.7006 19.8871 15.8841 20.1313 17.1636" stroke="#4EAF4E" stroke-width="2" stroke-linecap="round" stroke-linejoin="round"/>
<path d="M35.8301 17.1636C36.0743 15.8841 36.6776 14.7006 37.5695 13.7513C38.4614 12.8019 39.605 12.126 40.8668 11.8025C42.1285 11.479 43.4563 11.5213 44.6949 11.9244C45.9336 12.3275 47.0319 13.0747 47.8616 14.0788C48.6913 15.083 49.2182 16.3025 49.3805 17.5949C49.5429 18.8873 49.3341 20.1992 48.7786 21.3774C48.2231 22.5555 47.3437 23.5512 46.2433 24.2482C45.1429 24.9452 43.8668 25.3146 42.5643 25.3132" stroke="#4EAF4E" stroke-width="2" stroke-linecap="round" stroke-linejoin="round"/>
</svg>
