<svg width="205" height="221" viewBox="0 0 205 221" fill="none" xmlns="http://www.w3.org/2000/svg">
<path d="M90.5365 212.026C90.9971 212.176 90.9971 212.828 90.5365 212.977L86.4721 214.298C86.2661 214.365 86.1266 214.557 86.1266 214.773L86.1266 219.047C86.1266 219.531 85.5068 219.733 85.2221 219.341L82.7102 215.883C82.5829 215.708 82.3572 215.635 82.1512 215.702L78.0869 217.022C77.6262 217.172 77.2432 216.645 77.5279 216.253L80.0398 212.796C80.1671 212.62 80.1671 212.383 80.0398 212.208L77.5279 208.75C77.2432 208.359 77.6262 207.831 78.0869 207.981L82.1512 209.302C82.3572 209.369 82.5829 209.295 82.7102 209.12L85.2221 205.663C85.5068 205.271 86.1266 205.472 86.1266 205.957L86.1266 210.23C86.1266 210.447 86.2661 210.639 86.4721 210.706L90.5365 212.026Z" fill="#B5B5B5"/>
<path d="M3.35813 27.905C3.05063 27.6735 3.10903 27.1959 3.46326 27.0454L36.1117 13.1683C36.4659 13.0177 36.8503 13.3071 36.8036 13.6891L32.4973 48.9021C32.4505 49.2841 32.0077 49.4723 31.7002 49.2408L3.35813 27.905Z" fill="#FFCC4A"/>
<circle cx="189.951" cy="14.9531" r="14.9511" transform="rotate(90 189.951 14.9531)" fill="#4EAF4E"/>
</svg>
