<svg width="20" height="16" viewBox="0 0 20 16" fill="none" xmlns="http://www.w3.org/2000/svg">
<path d="M19.2745 2.57317C18.5833 2.87333 17.8518 3.07108 17.1034 3.16017C17.8899 2.69993 18.4815 1.96874 18.767 1.10376C18.0233 1.53829 17.2111 1.84317 16.3651 2.00536C16.0088 1.63226 15.5804 1.33545 15.1058 1.13297C14.6311 0.93049 14.1203 0.826568 13.6042 0.827521C11.5148 0.827521 9.824 2.4926 9.824 4.54518C9.82252 4.83069 9.85526 5.11535 9.92152 5.39307C8.42329 5.32289 6.95622 4.94096 5.61416 4.27173C4.2721 3.6025 3.08461 2.66071 2.12766 1.5066C1.79194 2.07216 1.61439 2.71745 1.61357 3.37502C1.61357 4.66412 2.28661 5.80359 3.30288 6.47116C2.70077 6.45688 2.11099 6.29763 1.58362 6.00693V6.05297C1.58362 7.85617 2.889 9.35628 4.6167 9.69774C4.29181 9.78428 3.95702 9.82813 3.62078 9.82818C3.38219 9.8286 3.14415 9.80546 2.91012 9.75912C3.39042 11.2362 4.78832 12.3105 6.44423 12.3412C5.09869 13.3774 3.44671 13.9375 1.74795 13.9333C1.44641 13.9329 1.14516 13.915 0.845703 13.8796C2.57386 14.9823 4.58271 15.5656 6.63313 15.5601C13.5962 15.5601 17.4002 9.8934 17.4002 4.97872C17.4002 4.81758 17.396 4.65645 17.3883 4.49915C18.1266 3.97432 18.7654 3.32212 19.2745 2.57317Z" fill="white"/>
</svg>
